<svg width="128" height="128" viewBox="0 0 128 128" fill="none" xmlns="http://www.w3.org/2000/svg">
<path d="M111.194 68.6L84.894 23.9C84.494 23.4 83.894 23 83.294 23C82.394 23 81.594 23.9 81.594 24.8V27.7V50.1L66.194 24C65.794 23.4 65.194 23 64.594 23.1H64.294C63.694 23.1 63.094 23.4 62.694 24L47.094 50.8V26C47.094 26 47.094 25.3 47.094 24.9C47.094 23.9 46.194 23.1 45.294 23.1C44.694 23.1 44.094 23.5 43.694 24.1L17.394 68.7C16.794 69.5 16.894 70.3 17.594 71.1L44.994 105.1C45.894 106.4 47.194 106 47.194 104.4V84L58.794 98.5L62.994 103.8L64.594 105.7L66.294 103.8L81.694 84.3V104.3C81.694 105.9 82.794 106.3 83.694 105L111.094 71C111.694 70.1 111.794 69.4 111.194 68.6ZM20.894 69.6L43.594 31.2V56.6L36.494 68.6C35.894 69.4 35.994 70.2 36.594 71L43.594 79.6V97.8L20.894 69.6ZM47.194 78.4L40.094 69.6L43.694 63.5L47.194 57.6L62.694 31.2L62.794 97.9L47.194 78.4ZM66.494 97.9L66.394 31.2L81.694 57L81.994 57.7L85.194 63.1V62.8L88.994 69.5L66.494 97.9ZM85.194 97.9V80.1L92.394 71.1C92.994 70.2 93.094 69.5 92.494 68.7L85.194 56V31.2L107.794 69.6L85.194 97.9Z" fill="#00416B"/>
</svg>
