<svg width="270" height="270" viewBox="0 0 270 270" fill="none" xmlns="http://www.w3.org/2000/svg">
<circle cx="132" cy="135" r="120" fill="#2F2C38"/>
<path d="M194.202 143.658C188.19 141.435 181.469 144.421 179.206 150.327C178.699 151.654 177.753 153.346 176.402 155.171C174.41 157.925 171.539 160.845 168.465 163.433C165.392 166.021 162.082 168.277 159.38 169.77C151.814 173.951 143.708 175.941 135.636 175.941C132.09 175.941 128.543 175.543 125.098 174.813C118.816 173.453 112.601 177.335 111.183 183.506C109.798 189.678 113.75 195.783 120.032 197.176C125.132 198.305 130.367 198.869 135.636 198.869C147.592 198.869 159.751 195.916 170.863 189.744C176.436 186.625 182.347 182.345 187.751 177.136C190.453 174.548 193.02 171.694 195.283 168.609C197.546 165.523 199.539 162.172 200.991 158.423C203.254 152.484 200.214 145.881 194.202 143.658Z" fill="#FCA311"/>
<path d="M206.972 123.518C206.263 113.432 203.257 103.279 197.853 93.9221C193.091 85.6604 186.809 78.6593 179.615 73.1185C172.387 67.6106 164.213 63.5296 155.6 61.0742C149.42 59.3158 142.968 62.7994 141.178 68.8715C139.388 74.9433 142.935 81.2806 149.116 83.0391C154.959 84.6979 160.464 87.452 165.328 91.168C170.191 94.8843 174.379 99.5624 177.622 105.17C181.303 111.54 183.262 118.309 183.769 125.111C184.208 131.415 189.781 136.16 196.198 135.728C202.582 135.297 207.411 129.822 206.972 123.518Z" fill="#FCA311"/>
<path d="M123.951 82.5398C130.199 81.0134 133.982 74.8088 132.428 68.6706C130.875 62.5324 124.559 58.8162 118.31 60.3426C112.163 61.8355 106.117 64.1581 100.308 67.3766C88.7234 73.8134 79.604 83.0373 73.4232 93.6548C67.2424 104.272 64 116.316 64 128.593C64 129.024 64 129.456 64 129.887V199.497C64 205.802 69.2013 210.944 75.6524 210.944C82.1035 210.944 87.3048 205.835 87.3048 199.497V128.526C87.3048 128.493 87.3048 128.427 87.3048 128.394C87.3386 120.198 89.534 112.103 93.6545 105.002C97.8088 97.8355 103.888 91.6641 111.758 87.2843C115.71 85.1276 119.796 83.5683 123.951 82.5398Z" fill="#FCA311"/>
<mask id="mask0_1_11402" style="mask-type:alpha" maskUnits="userSpaceOnUse" x="105" y="99" width="62" height="61">
<path d="M157.437 149.401C168.954 138.12 168.988 119.772 157.504 108.424C146.021 97.0769 127.343 97.0769 115.792 108.358C104.275 119.639 102.586 150.96 108.328 156.601C114.036 162.241 145.886 160.682 157.437 149.401Z" fill="url(#paint0_linear_1_11402)"/>
</mask>
<g mask="url(#mask0_1_11402)">
<ellipse cx="124.623" cy="117.307" rx="55.2517" ry="55.9001" fill="url(#paint1_linear_1_11402)"/>
<ellipse cx="124.623" cy="117.307" rx="55.2517" ry="55.9001" fill="url(#paint2_radial_1_11402)"/>
<ellipse cx="124.623" cy="117.307" rx="55.2517" ry="55.9001" fill="url(#paint3_radial_1_11402)"/>
<ellipse cx="124.623" cy="117.307" rx="55.2517" ry="55.9001" fill="url(#paint4_radial_1_11402)"/>
<ellipse cx="124.623" cy="117.307" rx="55.2517" ry="55.9001" fill="url(#paint5_radial_1_11402)"/>
<ellipse cx="124.623" cy="117.307" rx="55.2517" ry="55.9001" fill="url(#paint6_radial_1_11402)"/>
<g style="mix-blend-mode:soft-light" opacity="0.5">
<ellipse cx="124.623" cy="117.307" rx="55.2517" ry="55.9001" fill="url(#paint7_linear_1_11402)"/>
<ellipse cx="124.623" cy="117.307" rx="55.2517" ry="55.9001" fill="url(#paint8_radial_1_11402)"/>
<ellipse cx="124.623" cy="117.307" rx="55.2517" ry="55.9001" fill="url(#paint9_radial_1_11402)"/>
<ellipse cx="124.623" cy="117.307" rx="55.2517" ry="55.9001" fill="url(#paint10_radial_1_11402)"/>
<ellipse cx="124.623" cy="117.307" rx="55.2517" ry="55.9001" fill="url(#paint11_radial_1_11402)"/>
</g>
</g>
<defs>
<linearGradient id="paint0_linear_1_11402" x1="105.158" y1="129.838" x2="166.106" y2="129.838" gradientUnits="userSpaceOnUse">
<stop offset="0.0128742" stop-color="#7284FF"/>
<stop offset="0.2559" stop-color="#7282FF"/>
<stop offset="0.3435" stop-color="#747BFF"/>
<stop offset="0.4059" stop-color="#7670FF"/>
<stop offset="0.4563" stop-color="#795FFF"/>
<stop offset="0.4991" stop-color="#7C49FF"/>
<stop offset="0.513" stop-color="#7E40FF"/>
<stop offset="0.6877" stop-color="#7C3EFF"/>
<stop offset="0.7904" stop-color="#7735FF"/>
<stop offset="0.8746" stop-color="#6E27FF"/>
<stop offset="0.9483" stop-color="#6213FF"/>
<stop offset="1" stop-color="#5600FF"/>
</linearGradient>
<linearGradient id="paint1_linear_1_11402" x1="124.623" y1="74.2172" x2="150.493" y2="157.899" gradientUnits="userSpaceOnUse">
<stop stop-color="#A893E8"/>
<stop offset="1" stop-color="#9EA1DC"/>
</linearGradient>
<radialGradient id="paint2_radial_1_11402" cx="0" cy="0" r="1" gradientUnits="userSpaceOnUse" gradientTransform="translate(166.062 166.219) rotate(-130.525) scale(56.6877 54.2428)">
<stop stop-color="#606EF5"/>
<stop offset="1" stop-color="#909ADD" stop-opacity="0"/>
</radialGradient>
<radialGradient id="paint3_radial_1_11402" cx="0" cy="0" r="1" gradientUnits="userSpaceOnUse" gradientTransform="translate(152.249 61.4067) rotate(116.299) scale(62.3539 59.3495)">
<stop stop-color="#8874FF"/>
<stop offset="1" stop-color="#8874FF" stop-opacity="0"/>
</radialGradient>
<radialGradient id="paint4_radial_1_11402" cx="0" cy="0" r="1" gradientUnits="userSpaceOnUse" gradientTransform="translate(55.5588 56.7484) rotate(36.9276) scale(100.795 82.0015)">
<stop stop-color="white" stop-opacity="0.79"/>
<stop offset="1" stop-color="white" stop-opacity="0"/>
</radialGradient>
<radialGradient id="paint5_radial_1_11402" cx="0" cy="0" r="1" gradientUnits="userSpaceOnUse" gradientTransform="translate(78.5804 70.7234) rotate(45.3342) scale(40.9362 29.7299)">
<stop stop-color="white" stop-opacity="0.49"/>
<stop offset="1" stop-color="white" stop-opacity="0"/>
</radialGradient>
<radialGradient id="paint6_radial_1_11402" cx="0" cy="0" r="1" gradientUnits="userSpaceOnUse" gradientTransform="translate(145.971 117.307) rotate(50.2281) scale(31.4061 25.8602)">
<stop stop-color="white" stop-opacity="0.15"/>
<stop offset="1" stop-color="white" stop-opacity="0"/>
</radialGradient>
<linearGradient id="paint7_linear_1_11402" x1="124.623" y1="74.2172" x2="150.493" y2="157.899" gradientUnits="userSpaceOnUse">
<stop stop-color="#A893E8"/>
<stop offset="1" stop-color="#9EA1DC"/>
</linearGradient>
<radialGradient id="paint8_radial_1_11402" cx="0" cy="0" r="1" gradientUnits="userSpaceOnUse" gradientTransform="translate(166.062 166.219) rotate(-130.525) scale(56.6877 54.2428)">
<stop stop-color="#606EF5"/>
<stop offset="1" stop-color="#909ADD" stop-opacity="0"/>
</radialGradient>
<radialGradient id="paint9_radial_1_11402" cx="0" cy="0" r="1" gradientUnits="userSpaceOnUse" gradientTransform="translate(152.249 61.4067) rotate(115.925) scale(72.6902 69.1794)">
<stop stop-color="#8874FF"/>
<stop offset="1" stop-color="#8874FF" stop-opacity="0"/>
</radialGradient>
<radialGradient id="paint10_radial_1_11402" cx="0" cy="0" r="1" gradientUnits="userSpaceOnUse" gradientTransform="translate(55.5588 56.7484) rotate(40.0236) scale(103.064 83.7442)">
<stop stop-color="white" stop-opacity="0.79"/>
<stop offset="1" stop-color="white" stop-opacity="0"/>
</radialGradient>
<radialGradient id="paint11_radial_1_11402" cx="0" cy="0" r="1" gradientUnits="userSpaceOnUse" gradientTransform="translate(78.5804 70.7234) rotate(43.8452) scale(58.6529 42.6224)">
<stop stop-color="white" stop-opacity="0.49"/>
<stop offset="1" stop-color="white" stop-opacity="0"/>
</radialGradient>
</defs>
</svg>
